<?xml version="1.0" standalone="no"?>
<!DOCTYPE svg PUBLIC "-//W3C//DTD SVG 20010904//EN"
 "http://www.w3.org/TR/2001/REC-SVG-20010904/DTD/svg10.dtd">
<svg version="1.0" xmlns="http://www.w3.org/2000/svg"
 width="256.000000pt" height="256.000000pt" viewBox="0 0 256.000000 256.000000"
 preserveAspectRatio="xMidYMid meet">
<metadata>
Created by potrace 1.11, written by Peter Selinger 2001-2013
</metadata>
<g transform="translate(0.000000,256.000000) scale(0.100000,-0.100000)"
fill="#000000" stroke="none">
<path d="M979 2366 c-2 -2 -26 -6 -54 -10 -126 -15 -205 -51 -276 -125 -77
-79 -101 -143 -105 -276 -3 -83 1 -111 19 -166 22 -65 79 -168 121 -218 91
-108 176 -198 315 -330 217 -207 239 -221 317 -199 44 12 44 12 152 113 217
203 361 353 423 440 88 122 119 203 125 319 11 232 -100 380 -324 432 -132 31
-257 11 -365 -58 l-47 -30 -38 24 c-58 38 -135 67 -193 74 -30 3 -57 8 -60 10
-3 2 -8 2 -10 0z"/>
<path d="M35 1711 c-15 -50 -26 -168 -30 -349 -2 -103 1 -132 17 -175 11 -29
26 -70 34 -92 28 -76 124 -260 155 -299 25 -29 257 -196 273 -196 10 0 194
-115 208 -130 44 -47 58 -84 58 -157 0 -60 4 -77 20 -93 23 -23 15 -22 213
-22 192 -1 183 -9 192 174 7 152 -1 198 -52 295 -37 69 -57 95 -128 165 -88
88 -165 121 -332 143 -26 3 -61 9 -76 12 -29 5 -93 64 -162 150 -49 61 -113
112 -192 152 -40 20 -63 38 -64 49 0 9 -2 24 -4 33 -1 8 -6 42 -9 75 -4 32 -9
79 -12 104 -13 119 -41 180 -84 180 -10 0 -21 -9 -25 -19z"/>
<path d="M2472 1723 c-35 -14 -55 -103 -77 -343 -5 -52 -16 -66 -73 -92 -82
-38 -124 -73 -207 -173 -57 -68 -110 -117 -136 -127 -10 -4 -44 -10 -76 -13
-81 -8 -180 -33 -233 -60 -79 -40 -192 -160 -240 -254 -49 -97 -57 -152 -46
-311 9 -131 12 -139 44 -147 33 -9 301 -8 337 1 33 8 45 41 45 117 0 103 32
144 185 234 144 85 293 182 319 208 42 41 128 205 202 387 36 89 39 101 39
200 0 96 -7 194 -21 310 -8 62 -24 79 -62 63z"/>
</g>
</svg>
